<svg width="38" height="38" viewBox="0 0 38 38" fill="none" xmlns="http://www.w3.org/2000/svg">
<path fill-rule="evenodd" clip-rule="evenodd" d="M21.182 0C21.2075 0 21.2337 0.00075 21.26 0.003C30.2193 0.621 37.3786 7.7805 37.9974 16.74C38.0439 17.4233 37.4679 18 36.7824 18H20V1.21725C20 0.558 20.5325 0 21.182 0ZM33.812 21.5812H16.419V4.18817C16.419 3.54094 15.8928 3 15.2653 3C15.214 3 15.1627 3.00366 15.1107 3.01099C6.38301 4.24387 -0.290074 11.864 0.00971627 20.9999C0.308041 30.0911 7.90982 37.6921 17.0003 37.9905C17.1975 37.9971 17.3954 38 17.5918 38C26.4638 38 33.7827 31.4281 34.9892 22.8888C35.0867 22.1961 34.5113 21.5812 33.812 21.5812ZM18.4216 35C18.2601 35 18.0963 34.997 17.9333 34.9917C10.4989 34.7477 4.252 28.502 4.00789 21.0691C3.79833 14.6657 7.78293 9.04334 13.6145 7V25.3878H32C29.9998 31.0245 24.5851 35 18.4216 35Z" fill="white"/>
</svg>
