<svg width="43" height="38" viewBox="0 0 43 38" fill="none" xmlns="http://www.w3.org/2000/svg">
<path fill-rule="evenodd" clip-rule="evenodd" d="M17.4203 37.9771L14.4449 37.1385C14.1228 37.0494 13.9311 36.7154 14.0231 36.4037L24.8205 0.430538C24.9125 0.118825 25.2576 -0.0667188 25.5797 0.0223421L28.5551 0.860999C28.8772 0.950059 29.0689 1.28404 28.9769 1.59575L18.1795 37.5689C18.0875 37.8881 17.75 38.0662 17.4203 37.9771ZM11.7269 28.8155L13.8303 26.7007C14.07 26.4601 14.0468 26.0808 13.7916 25.8621L5.58702 19L13.7916 12.1379C14.0546 11.9192 14.07 11.5399 13.8303 11.2993L11.7269 9.18453C11.495 8.95117 11.1006 8.93659 10.8531 9.15536L0.197189 18.577C-0.0657297 18.8104 -0.0657297 19.1969 0.197189 19.4302L10.8531 28.8446C11.1006 29.0634 11.4872 29.0488 11.7269 28.8155ZM42.8027 19.4315L32.1486 28.8447C31.901 29.0634 31.5142 29.0488 31.2743 28.8155L29.1698 26.701C28.9299 26.4604 28.9454 26.0812 29.2085 25.8625L37.4176 19.0013L29.2085 12.1401C28.9532 11.9214 28.9299 11.5422 29.1698 11.3016L31.2743 9.18711C31.5064 8.9465 31.901 8.93921 32.1486 9.15795L42.8027 18.5784C43.0658 18.8117 43.0658 19.1982 42.8027 19.4315Z" fill="white"/>
</svg>
