<svg width="34" height="38" viewBox="0 0 34 38" fill="none" xmlns="http://www.w3.org/2000/svg">
<path fill-rule="evenodd" clip-rule="evenodd" d="M18.413 34.4375H25.8371C27.3133 34.4375 28.5097 35.6339 28.509 37.1094C28.509 37.6014 28.1104 38 27.6183 38H5.64217C5.1501 38 4.75154 37.6014 4.75154 37.1094C4.75154 35.6339 5.94795 34.4375 7.42416 34.4375H14.849V32.0298C11.3206 31.9074 7.82123 30.7511 4.85025 28.5453L2.86787 30.5269C2.40326 30.9908 1.65143 30.9908 1.18756 30.5269L0.348145 29.6882C-0.115723 29.2244 -0.115723 28.4725 0.348145 28.0087L4.73002 23.6275C4.75957 23.6613 4.78904 23.6952 4.81852 23.729C4.99483 23.9315 5.17107 24.1339 5.36311 24.3259C8.05576 27.0178 11.6353 28.5 15.4428 28.5C19.2502 28.5 22.8297 27.0171 25.5224 24.3259C28.2151 21.6348 29.6979 18.0567 29.6979 14.25C29.6979 10.4433 28.2151 6.86449 25.5224 4.17332C25.3399 3.9914 25.1475 3.82327 24.9553 3.65528C24.9115 3.61698 24.8677 3.57868 24.824 3.54023L28.0176 0.348083C28.4822 -0.115784 29.2341 -0.115784 29.6979 0.348083L30.5374 1.18676C31.0012 1.65062 31.0012 2.40246 30.5374 2.86633L29.7432 3.66047C34.9252 10.6326 34.37 20.52 28.0429 26.8449C25.3213 29.5665 21.9384 31.2127 18.413 31.8005V34.4375ZM15.4428 26.125C22.0037 26.125 27.3222 20.8087 27.3222 14.25C27.3222 7.695 22.0074 2.375 15.4428 2.375C8.88182 2.375 3.5633 7.69129 3.5633 14.25C3.56404 20.8043 8.87811 26.125 15.4428 26.125ZM15.4428 5.9375C20.0354 5.9375 23.7582 9.65883 23.7582 14.25C23.7582 18.8412 20.0354 22.5625 15.4428 22.5625C10.8501 22.5625 7.12729 18.8412 7.12729 14.25C7.12729 9.65883 10.8501 5.9375 15.4428 5.9375Z" fill="white"/>
</svg>
