<svg width="38" height="38" viewBox="0 0 38 38" fill="none" xmlns="http://www.w3.org/2000/svg">
<path fill-rule="evenodd" clip-rule="evenodd" d="M35.625 21.375H28.3805L33.5031 16.2524C34.4308 15.3247 34.4308 13.821 33.5031 12.894L25.106 4.49691C24.6421 4.03305 24.0343 3.80148 23.4264 3.80148C22.8186 3.80148 22.2107 4.03305 21.7468 4.49691L16.625 9.61949V2.375C16.625 1.06355 15.5614 0 14.25 0H2.375C1.06355 0 0 1.06355 0 2.375V29.6875C0 34.2787 3.72133 38 8.3125 38H35.625C36.9364 38 38 36.9364 38 35.625V23.75C38 22.4386 36.9364 21.375 35.625 21.375ZM8.3125 31.4688C9.2959 31.4688 10.0938 30.6709 10.0938 29.6875C10.0938 28.7034 9.2959 27.9062 8.3125 27.9062C7.3291 27.9062 6.53125 28.7034 6.53125 29.6875C6.53125 30.6709 7.3291 31.4688 8.3125 31.4688ZM11.6323 33.0756C12.5125 32.2132 13.0625 31.0145 13.0625 29.6875V22.5618H3.5625V29.6868C3.5625 32.3059 5.69332 34.4368 8.3125 34.4368H8.31398C8.72812 34.4368 9.12297 34.367 9.50594 34.2668C9.86961 34.1733 10.2147 34.0271 10.5465 33.8534C10.5643 33.8439 10.5822 33.8345 10.6002 33.8251L10.6003 33.825L10.6004 33.825C10.6481 33.7999 10.6961 33.7748 10.7424 33.7473C11.0608 33.5602 11.3614 33.3405 11.6323 33.0756ZM13.0625 19H3.5625V13.0625H13.0625V19ZM3.5625 9.5H13.0625V3.5625H3.5625V9.5ZM16.625 14.6575L23.4271 7.85531L30.1447 14.5729L16.625 28.0925V14.6575ZM15.318 34.4375H34.4375V24.9375H24.818L15.318 34.4375Z" fill="white"/>
</svg>
